<svg data-name="Layer 1" viewBox="0 0 24 24" xmlns="http://www.w3.org/2000/svg"><path d="M12 9.901A6.985 6.985 0 0 1 4.95 3a.75.75 0 1 1 1.5 0A5.483 5.483 0 0 0 12 8.401 5.483 5.483 0 0 0 17.55 3a.75.75 0 0 1 1.5 0A6.985 6.985 0 0 1 12 9.901ZM19 18.246a.75.75 0 0 1-.75-.75c0-2.978-2.804-5.401-6.25-5.401s-6.25 2.423-6.25 5.401a.75.75 0 0 1-1.5 0c0-3.806 3.477-6.901 7.75-6.901s7.75 3.095 7.75 6.901a.75.75 0 0 1-.75.75Z" fill="#17fa53" class="fill-4b5661"></path><path d="M13.1 10.78c-.215 0-.42-.002-.61-.005l-.49-.003c-2.299 0-7.683 0-9.683-4.389a.75.75 0 0 1 1.366-.622C5.283 9.272 9.819 9.272 12 9.272l.505.004c2.345.018 5.9.062 7.833-3.557a.75.75 0 1 1 1.324.706c-2.172 4.068-6.094 4.355-8.562 4.355Z" fill="#17fa53" class="fill-4b5661"></path><path d="M3 15.174a.75.75 0 0 1-.683-1.061c2-4.39 7.384-4.39 9.683-4.39l.489-.003c2.38-.03 6.812-.072 9.173 4.35a.75.75 0 0 1-1.324.707c-1.932-3.62-5.487-3.58-7.833-3.557l-.505.004c-2.18 0-6.718 0-8.317 3.51a.75.75 0 0 1-.683.44Z" fill="#17fa53" class="fill-4b5661"></path><circle cx="12" cy="10" r="3" transform="rotate(-16.775 12 10)" fill="#17fa53" class="fill-4b5661"></circle><path d="M12 7.75A2.753 2.753 0 0 1 9.25 5a.75.75 0 0 1 1.5 0 1.25 1.25 0 0 0 2.5 0 .75.75 0 0 1 1.5 0A2.753 2.753 0 0 1 12 7.75Z" fill="#17fa53" class="fill-4b5661"></path><circle cx="12" cy="17" r="5" fill="#17fa53" class="fill-4b5661"></circle><path d="M12.5 14h-1A2.5 2.5 0 0 0 9 16.5v.5a1.5 1.5 0 0 0 1.5 1.5h.5v.5a1 1 0 0 0 2 0v-.5h.5A1.5 1.5 0 0 0 15 17v-.5a2.5 2.5 0 0 0-2.5-2.5Zm-1.75 2.75a.75.75 0 1 1 .75-.75.75.75 0 0 1-.75.75Zm2.5 0A.75.75 0 1 1 14 16a.75.75 0 0 1-.75.75Z" fill="#16241a" class="fill-fa6d62 fill-00ff44"></path></svg>